<svg xmlns="http://www.w3.org/2000/svg" width="26.541" height="40" viewBox="0 0 26.541 40">
  <path id="Trazado_9715" data-name="Trazado 9715" d="M486.26,1621.369c-.671-1.019-1.305-1.961-1.919-2.916a126.666,126.666,0,0,1-9.125-16.181,23.225,23.225,0,0,1-2.049-6.042,12.12,12.12,0,0,1,3.124-10.263,12.627,12.627,0,0,1,13.608-4.017c5.261,1.492,8.384,5.158,9.469,10.522a12.7,12.7,0,0,1-.916,7.072,68.258,68.258,0,0,1-5.377,10.924c-2.1,3.524-4.32,6.973-6.489,10.453C486.509,1621.044,486.415,1621.157,486.26,1621.369Zm.023-33.558a6.291,6.291,0,1,0,6.282,6.3A6.311,6.311,0,0,0,486.283,1587.811Z" transform="translate(-473.015 -1581.369)" fill="#005481"/>
</svg>
